{"accessors" : [{"bufferView" : 0, "byteOffset" : 0, "componentType" : 5123, "count" : 55098, "type" : "SCALAR", "max" : [55097], "min" : [0]}, {"bufferView" : 1, "byteOffset" : 0, "componentType" : 5126, "count" : 55098, "type" : "VEC3", "max" : [3116.470947265625, -462.47369384765625, 2752.39697265625], "min" : [2959.4990234375, -996.826416015625, 2346.802001953125], "name" : "POSITION"}, {"bufferView" : 1, "byteOffset" : 12, "componentType" : 5126, "count" : 55098, "type" : "VEC3", "max" : [1.0000044107437134, 1.0000044107437134, 1.0000044107437134], "min" : [-1.0000044107437134, -1.0000044107437134, -1.0000044107437134], "name" : "NORMAL"}], "asset" : {"generator" : "Aspose.3D 24.9.1", "version" : "2.0"}, "buffers" : [{"uri" : "data:application/octet-stream;base64,", "byteLength" : 1432556}], "bufferViews" : [{"buffer" : 0, "byteOffset" : 0, "byteLength" : 110196, "target" : 34963}, {"buffer" : 0, "byteOffset" : 110200, "byteLength" : 1322352, "byteStride" : 24, "target" : 34962}], "meshes" : [{"primitives" : [{"attributes" : {"POSITION" : 1, "NORMAL" : 2}, "indices" : 0, "mode" : 4}], "name" : "CATIA STL"}], "nodes" : [{"mesh" : 0, "name" : "CATIA STL"}], "scene" : 0, "scenes" : [{"nodes" : [0]}]}